<mxfile host="app.diagrams.net" agent="Mozilla/5.0 (Windows NT 10.0; Win64; x64) AppleWebKit/537.36 (KHTML, like Gecko) Chrome/138.0.0.0 Safari/537.36 OPR/122.0.0.0" version="28.2.7">
  <diagram name="Page-1" id="mC4VjlT9IrqrExHmMhiY">
    <mxGraphModel dx="2196" dy="2418" grid="1" gridSize="10" guides="1" tooltips="1" connect="1" arrows="1" fold="1" page="1" pageScale="1" pageWidth="827" pageHeight="1169" math="0" shadow="0">
      <root>
        <mxCell id="0" />
        <mxCell id="1" parent="0" />
        <mxCell id="QlQwFSaHxF--XzRwp5Nj-21" style="edgeStyle=orthogonalEdgeStyle;rounded=0;orthogonalLoop=1;jettySize=auto;html=1;entryX=0;entryY=0.5;entryDx=0;entryDy=0;" edge="1" parent="1" source="QlQwFSaHxF--XzRwp5Nj-1" target="QlQwFSaHxF--XzRwp5Nj-20">
          <mxGeometry relative="1" as="geometry" />
        </mxCell>
        <mxCell id="QlQwFSaHxF--XzRwp5Nj-26" style="edgeStyle=orthogonalEdgeStyle;rounded=0;orthogonalLoop=1;jettySize=auto;html=1;entryX=0;entryY=0.5;entryDx=0;entryDy=0;" edge="1" parent="1" source="QlQwFSaHxF--XzRwp5Nj-1" target="QlQwFSaHxF--XzRwp5Nj-12">
          <mxGeometry relative="1" as="geometry" />
        </mxCell>
        <mxCell id="QlQwFSaHxF--XzRwp5Nj-27" style="edgeStyle=orthogonalEdgeStyle;rounded=0;orthogonalLoop=1;jettySize=auto;html=1;entryX=0;entryY=0.5;entryDx=0;entryDy=0;" edge="1" parent="1" source="QlQwFSaHxF--XzRwp5Nj-1" target="QlQwFSaHxF--XzRwp5Nj-14">
          <mxGeometry relative="1" as="geometry" />
        </mxCell>
        <mxCell id="QlQwFSaHxF--XzRwp5Nj-37" style="edgeStyle=orthogonalEdgeStyle;rounded=0;orthogonalLoop=1;jettySize=auto;html=1;entryX=0.5;entryY=0;entryDx=0;entryDy=0;" edge="1" parent="1" source="QlQwFSaHxF--XzRwp5Nj-1" target="QlQwFSaHxF--XzRwp5Nj-35">
          <mxGeometry relative="1" as="geometry" />
        </mxCell>
        <mxCell id="QlQwFSaHxF--XzRwp5Nj-43" style="edgeStyle=orthogonalEdgeStyle;rounded=0;orthogonalLoop=1;jettySize=auto;html=1;entryX=0;entryY=0.5;entryDx=0;entryDy=0;" edge="1" parent="1" source="QlQwFSaHxF--XzRwp5Nj-1" target="QlQwFSaHxF--XzRwp5Nj-38">
          <mxGeometry relative="1" as="geometry" />
        </mxCell>
        <mxCell id="QlQwFSaHxF--XzRwp5Nj-44" style="edgeStyle=orthogonalEdgeStyle;rounded=0;orthogonalLoop=1;jettySize=auto;html=1;entryX=0;entryY=0.5;entryDx=0;entryDy=0;" edge="1" parent="1" source="QlQwFSaHxF--XzRwp5Nj-1" target="QlQwFSaHxF--XzRwp5Nj-42">
          <mxGeometry relative="1" as="geometry" />
        </mxCell>
        <mxCell id="QlQwFSaHxF--XzRwp5Nj-1" value="bibliothécaire" style="shape=umlActor;verticalLabelPosition=bottom;verticalAlign=top;html=1;outlineConnect=0;" vertex="1" parent="1">
          <mxGeometry x="30" y="100" width="30" height="60" as="geometry" />
        </mxCell>
        <mxCell id="QlQwFSaHxF--XzRwp5Nj-13" value="" style="edgeStyle=orthogonalEdgeStyle;rounded=0;orthogonalLoop=1;jettySize=auto;html=1;" edge="1" parent="1" source="QlQwFSaHxF--XzRwp5Nj-2" target="QlQwFSaHxF--XzRwp5Nj-12">
          <mxGeometry relative="1" as="geometry">
            <Array as="points">
              <mxPoint x="45" y="670" />
            </Array>
          </mxGeometry>
        </mxCell>
        <mxCell id="QlQwFSaHxF--XzRwp5Nj-15" style="edgeStyle=orthogonalEdgeStyle;rounded=0;orthogonalLoop=1;jettySize=auto;html=1;entryX=0;entryY=0.5;entryDx=0;entryDy=0;" edge="1" parent="1" source="QlQwFSaHxF--XzRwp5Nj-2" target="QlQwFSaHxF--XzRwp5Nj-14">
          <mxGeometry relative="1" as="geometry" />
        </mxCell>
        <mxCell id="QlQwFSaHxF--XzRwp5Nj-36" style="edgeStyle=orthogonalEdgeStyle;rounded=0;orthogonalLoop=1;jettySize=auto;html=1;entryX=0;entryY=0.5;entryDx=0;entryDy=0;" edge="1" parent="1" source="QlQwFSaHxF--XzRwp5Nj-2" target="QlQwFSaHxF--XzRwp5Nj-35">
          <mxGeometry relative="1" as="geometry" />
        </mxCell>
        <mxCell id="QlQwFSaHxF--XzRwp5Nj-49" style="edgeStyle=orthogonalEdgeStyle;rounded=0;orthogonalLoop=1;jettySize=auto;html=1;entryX=0;entryY=0.5;entryDx=0;entryDy=0;" edge="1" parent="1" source="QlQwFSaHxF--XzRwp5Nj-2" target="QlQwFSaHxF--XzRwp5Nj-48">
          <mxGeometry relative="1" as="geometry" />
        </mxCell>
        <mxCell id="QlQwFSaHxF--XzRwp5Nj-50" style="edgeStyle=orthogonalEdgeStyle;rounded=0;orthogonalLoop=1;jettySize=auto;html=1;entryX=0;entryY=0.5;entryDx=0;entryDy=0;" edge="1" parent="1" source="QlQwFSaHxF--XzRwp5Nj-2" target="QlQwFSaHxF--XzRwp5Nj-14">
          <mxGeometry relative="1" as="geometry" />
        </mxCell>
        <mxCell id="QlQwFSaHxF--XzRwp5Nj-51" style="edgeStyle=orthogonalEdgeStyle;rounded=0;orthogonalLoop=1;jettySize=auto;html=1;entryX=0;entryY=0.5;entryDx=0;entryDy=0;" edge="1" parent="1" source="QlQwFSaHxF--XzRwp5Nj-2" target="QlQwFSaHxF--XzRwp5Nj-12">
          <mxGeometry relative="1" as="geometry" />
        </mxCell>
        <mxCell id="QlQwFSaHxF--XzRwp5Nj-2" value="emprunteur" style="shape=umlActor;verticalLabelPosition=bottom;verticalAlign=top;html=1;outlineConnect=0;" vertex="1" parent="1">
          <mxGeometry x="30" y="410" width="30" height="60" as="geometry" />
        </mxCell>
        <mxCell id="QlQwFSaHxF--XzRwp5Nj-12" value="réserver titre" style="ellipse;whiteSpace=wrap;html=1;verticalAlign=top;" vertex="1" parent="1">
          <mxGeometry x="230" y="520" width="215" height="80" as="geometry" />
        </mxCell>
        <mxCell id="QlQwFSaHxF--XzRwp5Nj-52" style="rounded=0;orthogonalLoop=1;jettySize=auto;html=1;entryX=1;entryY=0.5;entryDx=0;entryDy=0;dashed=1;edgeStyle=orthogonalEdgeStyle;" edge="1" parent="1" source="QlQwFSaHxF--XzRwp5Nj-14" target="QlQwFSaHxF--XzRwp5Nj-42">
          <mxGeometry relative="1" as="geometry">
            <mxPoint x="640" y="40" as="targetPoint" />
          </mxGeometry>
        </mxCell>
        <mxCell id="QlQwFSaHxF--XzRwp5Nj-14" value="annuler réservation" style="ellipse;whiteSpace=wrap;html=1;verticalAlign=top;" vertex="1" parent="1">
          <mxGeometry x="230" y="440" width="215" height="80" as="geometry" />
        </mxCell>
        <mxCell id="QlQwFSaHxF--XzRwp5Nj-19" style="edgeStyle=orthogonalEdgeStyle;rounded=0;orthogonalLoop=1;jettySize=auto;html=1;" edge="1" parent="1" source="QlQwFSaHxF--XzRwp5Nj-18" target="QlQwFSaHxF--XzRwp5Nj-2">
          <mxGeometry relative="1" as="geometry" />
        </mxCell>
        <mxCell id="QlQwFSaHxF--XzRwp5Nj-23" style="edgeStyle=orthogonalEdgeStyle;rounded=0;orthogonalLoop=1;jettySize=auto;html=1;entryX=1;entryY=0.5;entryDx=0;entryDy=0;dashed=1;" edge="1" parent="1" source="QlQwFSaHxF--XzRwp5Nj-18" target="QlQwFSaHxF--XzRwp5Nj-20">
          <mxGeometry relative="1" as="geometry" />
        </mxCell>
        <mxCell id="QlQwFSaHxF--XzRwp5Nj-18" value="avertir quand titre dispo" style="ellipse;whiteSpace=wrap;html=1;" vertex="1" parent="1">
          <mxGeometry x="220" y="310" width="210" height="80" as="geometry" />
        </mxCell>
        <mxCell id="QlQwFSaHxF--XzRwp5Nj-20" value="restituer un livre" style="ellipse;whiteSpace=wrap;html=1;" vertex="1" parent="1">
          <mxGeometry x="203" y="150" width="210" height="80" as="geometry" />
        </mxCell>
        <mxCell id="QlQwFSaHxF--XzRwp5Nj-25" style="edgeStyle=orthogonalEdgeStyle;rounded=0;orthogonalLoop=1;jettySize=auto;html=1;entryX=1;entryY=0.5;entryDx=0;entryDy=0;" edge="1" parent="1" source="QlQwFSaHxF--XzRwp5Nj-24" target="QlQwFSaHxF--XzRwp5Nj-18">
          <mxGeometry relative="1" as="geometry" />
        </mxCell>
        <mxCell id="QlQwFSaHxF--XzRwp5Nj-24" value="system" style="rounded=0;whiteSpace=wrap;html=1;" vertex="1" parent="1">
          <mxGeometry x="960" y="830" width="120" height="60" as="geometry" />
        </mxCell>
        <mxCell id="QlQwFSaHxF--XzRwp5Nj-31" style="edgeStyle=orthogonalEdgeStyle;rounded=0;orthogonalLoop=1;jettySize=auto;html=1;" edge="1" parent="1" source="QlQwFSaHxF--XzRwp5Nj-28" target="QlQwFSaHxF--XzRwp5Nj-29">
          <mxGeometry relative="1" as="geometry" />
        </mxCell>
        <mxCell id="QlQwFSaHxF--XzRwp5Nj-32" style="edgeStyle=orthogonalEdgeStyle;rounded=0;orthogonalLoop=1;jettySize=auto;html=1;entryX=0;entryY=0.5;entryDx=0;entryDy=0;" edge="1" parent="1" source="QlQwFSaHxF--XzRwp5Nj-28" target="QlQwFSaHxF--XzRwp5Nj-30">
          <mxGeometry relative="1" as="geometry" />
        </mxCell>
        <mxCell id="QlQwFSaHxF--XzRwp5Nj-28" value="utilisateur" style="shape=umlActor;verticalLabelPosition=bottom;verticalAlign=top;html=1;outlineConnect=0;" vertex="1" parent="1">
          <mxGeometry x="80" y="800" width="30" height="60" as="geometry" />
        </mxCell>
        <mxCell id="QlQwFSaHxF--XzRwp5Nj-29" value="authentification" style="ellipse;whiteSpace=wrap;html=1;" vertex="1" parent="1">
          <mxGeometry x="445" y="740" width="220" height="80" as="geometry" />
        </mxCell>
        <mxCell id="QlQwFSaHxF--XzRwp5Nj-30" value="deconnecter" style="ellipse;whiteSpace=wrap;html=1;" vertex="1" parent="1">
          <mxGeometry x="445" y="820" width="220" height="80" as="geometry" />
        </mxCell>
        <mxCell id="QlQwFSaHxF--XzRwp5Nj-33" style="edgeStyle=orthogonalEdgeStyle;rounded=0;orthogonalLoop=1;jettySize=auto;html=1;entryX=0.5;entryY=0.5;entryDx=0;entryDy=0;entryPerimeter=0;" edge="1" parent="1" source="QlQwFSaHxF--XzRwp5Nj-2" target="QlQwFSaHxF--XzRwp5Nj-28">
          <mxGeometry relative="1" as="geometry" />
        </mxCell>
        <mxCell id="QlQwFSaHxF--XzRwp5Nj-34" style="edgeStyle=orthogonalEdgeStyle;rounded=0;orthogonalLoop=1;jettySize=auto;html=1;entryX=0.25;entryY=0.1;entryDx=0;entryDy=0;entryPerimeter=0;" edge="1" parent="1" source="QlQwFSaHxF--XzRwp5Nj-1" target="QlQwFSaHxF--XzRwp5Nj-28">
          <mxGeometry relative="1" as="geometry" />
        </mxCell>
        <mxCell id="QlQwFSaHxF--XzRwp5Nj-35" value="gérer compte" style="ellipse;whiteSpace=wrap;html=1;" vertex="1" parent="1">
          <mxGeometry x="860" y="180" width="220" height="80" as="geometry" />
        </mxCell>
        <mxCell id="QlQwFSaHxF--XzRwp5Nj-38" value="gérer un livre" style="ellipse;whiteSpace=wrap;html=1;" vertex="1" parent="1">
          <mxGeometry x="380" y="-100" width="220" height="80" as="geometry" />
        </mxCell>
        <mxCell id="QlQwFSaHxF--XzRwp5Nj-45" style="edgeStyle=orthogonalEdgeStyle;rounded=0;orthogonalLoop=1;jettySize=auto;html=1;entryX=1;entryY=0.5;entryDx=0;entryDy=0;" edge="1" parent="1" source="QlQwFSaHxF--XzRwp5Nj-39" target="QlQwFSaHxF--XzRwp5Nj-38">
          <mxGeometry relative="1" as="geometry" />
        </mxCell>
        <mxCell id="QlQwFSaHxF--XzRwp5Nj-39" value="ajouter un livre" style="ellipse;whiteSpace=wrap;html=1;" vertex="1" parent="1">
          <mxGeometry x="670" y="-220" width="220" height="80" as="geometry" />
        </mxCell>
        <mxCell id="QlQwFSaHxF--XzRwp5Nj-46" style="edgeStyle=orthogonalEdgeStyle;rounded=0;orthogonalLoop=1;jettySize=auto;html=1;" edge="1" parent="1" source="QlQwFSaHxF--XzRwp5Nj-40">
          <mxGeometry relative="1" as="geometry">
            <mxPoint x="610" y="-60" as="targetPoint" />
          </mxGeometry>
        </mxCell>
        <mxCell id="QlQwFSaHxF--XzRwp5Nj-40" value="modifier un livre" style="ellipse;whiteSpace=wrap;html=1;" vertex="1" parent="1">
          <mxGeometry x="670" y="-140" width="220" height="80" as="geometry" />
        </mxCell>
        <mxCell id="QlQwFSaHxF--XzRwp5Nj-47" style="edgeStyle=orthogonalEdgeStyle;rounded=0;orthogonalLoop=1;jettySize=auto;html=1;" edge="1" parent="1" source="QlQwFSaHxF--XzRwp5Nj-41">
          <mxGeometry relative="1" as="geometry">
            <mxPoint x="610" y="-60" as="targetPoint" />
          </mxGeometry>
        </mxCell>
        <mxCell id="QlQwFSaHxF--XzRwp5Nj-41" value="supprimer un livre" style="ellipse;whiteSpace=wrap;html=1;" vertex="1" parent="1">
          <mxGeometry x="670" y="-60" width="220" height="80" as="geometry" />
        </mxCell>
        <mxCell id="QlQwFSaHxF--XzRwp5Nj-42" value="emprunter livre" style="ellipse;whiteSpace=wrap;html=1;" vertex="1" parent="1">
          <mxGeometry x="380" y="-10" width="220" height="80" as="geometry" />
        </mxCell>
        <mxCell id="QlQwFSaHxF--XzRwp5Nj-48" value="consulter titre dispo" style="ellipse;whiteSpace=wrap;html=1;" vertex="1" parent="1">
          <mxGeometry x="230" y="700" width="220" height="60" as="geometry" />
        </mxCell>
        <mxCell id="QlQwFSaHxF--XzRwp5Nj-58" style="edgeStyle=orthogonalEdgeStyle;rounded=0;orthogonalLoop=1;jettySize=auto;html=1;entryX=1;entryY=0.5;entryDx=0;entryDy=0;" edge="1" parent="1" source="QlQwFSaHxF--XzRwp5Nj-53" target="QlQwFSaHxF--XzRwp5Nj-35">
          <mxGeometry relative="1" as="geometry" />
        </mxCell>
        <mxCell id="QlQwFSaHxF--XzRwp5Nj-53" value="supprimer compte" style="ellipse;whiteSpace=wrap;html=1;" vertex="1" parent="1">
          <mxGeometry x="1120" y="240" width="220" height="80" as="geometry" />
        </mxCell>
        <mxCell id="QlQwFSaHxF--XzRwp5Nj-57" style="edgeStyle=orthogonalEdgeStyle;rounded=0;orthogonalLoop=1;jettySize=auto;html=1;entryX=1;entryY=0.5;entryDx=0;entryDy=0;" edge="1" parent="1" source="QlQwFSaHxF--XzRwp5Nj-54" target="QlQwFSaHxF--XzRwp5Nj-35">
          <mxGeometry relative="1" as="geometry">
            <mxPoint x="1080" y="210" as="targetPoint" />
          </mxGeometry>
        </mxCell>
        <mxCell id="QlQwFSaHxF--XzRwp5Nj-54" value="modifier compte" style="ellipse;whiteSpace=wrap;html=1;" vertex="1" parent="1">
          <mxGeometry x="1120" y="160" width="220" height="80" as="geometry" />
        </mxCell>
        <mxCell id="QlQwFSaHxF--XzRwp5Nj-56" style="edgeStyle=orthogonalEdgeStyle;rounded=0;orthogonalLoop=1;jettySize=auto;html=1;entryX=1;entryY=0.5;entryDx=0;entryDy=0;" edge="1" parent="1" source="QlQwFSaHxF--XzRwp5Nj-55" target="QlQwFSaHxF--XzRwp5Nj-35">
          <mxGeometry relative="1" as="geometry" />
        </mxCell>
        <mxCell id="QlQwFSaHxF--XzRwp5Nj-55" value="créer compte" style="ellipse;whiteSpace=wrap;html=1;" vertex="1" parent="1">
          <mxGeometry x="1120" y="80" width="220" height="80" as="geometry" />
        </mxCell>
      </root>
    </mxGraphModel>
  </diagram>
</mxfile>
